<?xml version="1.0" encoding="UTF-8" standalone="no"?>
<svg
   xmlns:dc="http://purl.org/dc/elements/1.1/"
   xmlns:cc="http://creativecommons.org/ns#"
   xmlns:rdf="http://www.w3.org/1999/02/22-rdf-syntax-ns#"
   xmlns:svg="http://www.w3.org/2000/svg"
   xmlns="http://www.w3.org/2000/svg"
   xmlns:sodipodi="http://sodipodi.sourceforge.net/DTD/sodipodi-0.dtd"
   xmlns:inkscape="http://www.inkscape.org/namespaces/inkscape"
   version="1.0"
   width="1107.000000pt"
   height="1109.000000pt"
   viewBox="0 0 1107.000000 1109.000000"
   preserveAspectRatio="xMidYMid meet"
   id="svg6"
   sodipodi:docname="3d-viewer.svg"
   inkscape:version="1.0 (4035a4fb49, 2020-05-01)">
  <metadata
     id="metadata12">
    <rdf:RDF>
      <cc:Work
         rdf:about="">
        <dc:format>image/svg+xml</dc:format>
        <dc:type
           rdf:resource="http://purl.org/dc/dcmitype/StillImage" />
        <dc:title></dc:title>
      </cc:Work>
    </rdf:RDF>
  </metadata>
  <defs
     id="defs10">
    <inkscape:perspective
       id="perspective2220"
       inkscape:persp3d-origin="1069.6684 : 984.60013 : 1"
       inkscape:vp_z="3053.1958 : 1531.0583 : 1"
       inkscape:vp_y="0 : 2699.1682 : 0"
       inkscape:vp_x="-1128.0212 : 1633.3625 : 1"
       sodipodi:type="inkscape:persp3d" />
  </defs>
  <sodipodi:namedview
     inkscape:document-rotation="0"
     pagecolor="#ffffff"
     bordercolor="#666666"
     borderopacity="1"
     objecttolerance="10"
     gridtolerance="10"
     guidetolerance="10"
     inkscape:pageopacity="0"
     inkscape:pageshadow="2"
     inkscape:window-width="1827"
     inkscape:window-height="1057"
     id="namedview8"
     showgrid="false"
     inkscape:zoom="0.11313708"
     inkscape:cx="963.18078"
     inkscape:cy="341.83641"
     inkscape:window-x="1912"
     inkscape:window-y="-8"
     inkscape:window-maximized="1"
     inkscape:current-layer="svg6" />
  <g
     transform="translate(0.000000,1109.000000) scale(0.100000,-0.100000)"
     fill="#000000"
     stroke="none"
     id="g4"
     style="fill:#080c80;fill-opacity:1">
    <path
       d="m 955,10675 c -233,-42 -430,-231 -480,-460 -14,-63 -15,-556 -13,-4705 l 3,-4635 23,-65 c 77,-213 256,-367 469,-405 66,-12 802,-14 4643,-15 3114,0 4585,3 4629,11 141,22 245,76 348,179 71,72 131,180 158,285 13,52 15,592 15,4675 0,4083 -2,4623 -15,4675 -62,246 -256,424 -506,464 -102,17 -9182,13 -9274,-4 z"
       id="path2"
       style="fill:#080c80;fill-opacity:1"
       sodipodi:nodetypes="ccccccccccsccc" />
  </g>
  <path
     d="M 556.36042,136.05407 198.87366,287.82406 V 756.87973 L 556.36042,526.76841 Z"
     style="mix-blend-mode:normal;fill:#e9e9ff;fill-opacity:1;fill-rule:evenodd;stroke:none;stroke-width:5.03403;stroke-linejoin:round"
     id="path2340" />
  <path
     d="M 946.38883,234.50528 V 684.93142 L 556.36042,526.76841 V 136.05407 Z"
     style="mix-blend-mode:normal;fill:#353564;fill-opacity:1;fill-rule:evenodd;stroke:none;stroke-width:5.03403;stroke-linejoin:round"
     id="path2342" />
  <path
     d="M 946.38883,684.93142 614.24592,996.31121 198.87366,756.87973 556.36042,526.76841 Z"
     style="mix-blend-mode:normal;fill:#afafde;fill-opacity:1;fill-rule:evenodd;stroke:none;stroke-width:5.03403;stroke-linejoin:round"
     id="path2344" />
  <path
     d="M 946.38883,234.50528 614.24592,438.47728 198.87366,287.82406 556.36042,136.05407 Z"
     style="mix-blend-mode:normal;fill:#8d8dc0;fill-opacity:1;fill-rule:evenodd;stroke:none;stroke-width:5.03403;stroke-linejoin:round"
     id="path2346" />
  <path
     d="M 614.24592,438.47728 V 996.31121 L 198.87366,756.87973 V 287.82406 Z"
     style="mix-blend-mode:normal;fill:#f1f1ff;fill-opacity:1;fill-rule:evenodd;stroke:none;stroke-width:5.03403;stroke-linejoin:round"
     id="path2348" />
  <path
     d="m 946.38883,234.50528 -332.14291,203.972 V 996.31121 L 946.38883,684.93142 Z"
     style="mix-blend-mode:normal;fill:#c4c4e0;fill-opacity:1;fill-rule:evenodd;stroke:none;stroke-width:5.03403;stroke-linejoin:round"
     id="path2350" />
</svg>
