<?xml version="1.0" encoding="UTF-8" standalone="no"?>
<svg
   xmlns:dc="http://purl.org/dc/elements/1.1/"
   xmlns:cc="http://creativecommons.org/ns#"
   xmlns:rdf="http://www.w3.org/1999/02/22-rdf-syntax-ns#"
   xmlns:svg="http://www.w3.org/2000/svg"
   xmlns="http://www.w3.org/2000/svg"
   xmlns:sodipodi="http://sodipodi.sourceforge.net/DTD/sodipodi-0.dtd"
   xmlns:inkscape="http://www.inkscape.org/namespaces/inkscape"
   inkscape:export-ydpi="4.4738193"
   inkscape:export-xdpi="4.4738193"
   inkscape:export-filename="C:\src\imod-qgis\imod\icon_v2.png"
   inkscape:version="1.0 (4035a4fb49, 2020-05-01)"
   sodipodi:docname="iMOD.svg"
   id="svg6"
   preserveAspectRatio="xMidYMid meet"
   viewBox="0 0 1107.000000 1109.000000"
   height="1109.000000pt"
   width="1107.000000pt"
   version="1.0">
  <metadata
     id="metadata12">
    <rdf:RDF>
      <cc:Work
         rdf:about="">
        <dc:format>image/svg+xml</dc:format>
        <dc:type
           rdf:resource="http://purl.org/dc/dcmitype/StillImage" />
        <dc:title></dc:title>
      </cc:Work>
    </rdf:RDF>
  </metadata>
  <defs
     id="defs10" />
  <sodipodi:namedview
     inkscape:current-layer="svg6"
     inkscape:window-maximized="1"
     inkscape:window-y="-8"
     inkscape:window-x="1912"
     inkscape:cy="-308.37782"
     inkscape:cx="-1399.3576"
     inkscape:zoom="0.04"
     showgrid="false"
     id="namedview8"
     inkscape:window-height="1057"
     inkscape:window-width="1827"
     inkscape:pageshadow="2"
     inkscape:pageopacity="0"
     guidetolerance="10"
     gridtolerance="10"
     objecttolerance="10"
     borderopacity="1"
     bordercolor="#666666"
     pagecolor="#ffffff"
     inkscape:document-rotation="0" />
  <g
     style="fill:#080c80;fill-opacity:1"
     id="g4"
     stroke="none"
     fill="#000000"
     transform="translate(0.000000,1109.000000) scale(0.100000,-0.100000)">
    <path
       sodipodi:nodetypes="ccccccccccsccc"
       style="fill:#080c80;fill-opacity:1"
       id="path2"
       d="m 955,10675 c -233,-42 -430,-231 -480,-460 -14,-63 -15,-556 -13,-4705 l 3,-4635 23,-65 c 77,-213 256,-367 469,-405 66,-12 802,-14 4643,-15 3114,0 4585,3 4629,11 141,22 245,76 348,179 71,72 131,180 158,285 13,52 15,592 15,4675 0,4083 -2,4623 -15,4675 -62,246 -256,424 -506,464 -102,17 -9182,13 -9274,-4 z" />
  </g>
  <g
     transform="matrix(0.98306908,0,0,0.98306908,23.308742,13.061233)"
     id="g848">
    <path
       style="fill:#ffffff;fill-opacity:1;fill-rule:evenodd;stroke:#15aae4;stroke-width:0;stroke-miterlimit:4;stroke-dasharray:none"
       d="m 299.86349,788.92678 c -40.69039,-30.3065 -57.96231,-72.024 -53.59233,-129.44378 2.13338,-28.03125 7.68471,-52.91575 19.16915,-85.92722 13.08152,-37.60249 28.24195,-70.07109 56.6652,-121.35792 27.9496,-50.43212 38.97546,-73.81315 46.49648,-98.59824 3.19125,-10.51674 3.57784,-13.87772 3.67952,-31.99288 0.10768,-19.16816 -0.0835,-20.77866 -3.61216,-30.36823 -2.04921,-5.56963 -6.0031,-13.64995 -8.78635,-17.95627 -2.78334,-4.30633 -4.83255,-7.82968 -4.55392,-7.82968 2.08553,0 25.32015,8.33444 30.37387,10.89532 8.84709,4.48319 18.8089,12.23283 24.60418,19.14064 18.73727,22.33398 18.09293,58.571 -1.94589,109.42807 -3.59573,9.1258 -18.36003,40.39259 -32.80957,69.48176 -32.076,64.57404 -47.84144,97.69687 -55.42311,116.44261 -6.45596,15.96234 -15.11802,45.0471 -18.10419,60.78875 -7.06716,37.25542 -5.8089,88.61132 3.19026,130.21044 1.38654,6.40912 2.35372,11.82013 2.14927,12.02455 -0.20437,0.20441 -3.57957,-2.01764 -7.50041,-4.93792 z"
       id="path831" />
    <path
       style="fill:#ffffff;fill-opacity:1;fill-rule:evenodd;stroke:#15aae4;stroke-width:0;stroke-miterlimit:4;stroke-dasharray:none"
       d="m 390.37054,250.38027 c -22.37521,-6.0259 -40.83221,-24.62063 -46.66463,-47.01276 -4.12675,-15.84368 -1.49076,-36.03175 6.49337,-49.73077 2.04159,-3.50303 7.1003,-9.69827 11.24158,-13.76722 25.03789,-24.60095 64.2869,-25.30436 89.87879,-1.61077 12.96295,12.00141 18.63104,22.89648 21.08454,40.52849 4.33048,31.12005 -16.31155,62.51329 -47.03006,71.52529 -8.68793,2.5488 -25.66896,2.58166 -35.00359,0.0677 z"
       id="path833" />
    <path
       style="fill:#ffffff;fill-opacity:1;fill-rule:evenodd;stroke:#15aae4;stroke-width:0;stroke-miterlimit:4;stroke-dasharray:none"
       d="m 829.19472,972.59326 c 1.77158,-6.06273 4.89021,-30.1134 6.26413,-48.30853 5.84867,-77.45862 -16.42422,-175.76593 -59.14503,-261.05158 -16.29284,-32.52623 -31.8344,-56.32854 -46.08257,-70.57668 -9.68916,-9.68917 -14.3454,-9.59913 -19.4979,0.37704 -2.89746,5.61006 -9.1594,27.15288 -19.03841,65.49832 -21.63255,83.96591 -35.0716,119.55787 -57.79163,153.05531 -13.22905,19.50428 -36.18132,39.89192 -41.32864,36.71058 -5.39926,-3.337 -17.9217,-22.09703 -26.85985,-40.23905 -15.79205,-32.05368 -25.03126,-60.00474 -44.36556,-134.2172 -16.85528,-64.6975 -19.0947,-71.50818 -25.38198,-77.19418 -5.84013,-5.28171 -8.37897,0.91512 -21.87622,53.39612 -19.94132,77.5375 -33.76114,109.68712 -57.303,133.30696 -15.42316,15.47424 -33.27423,21.85959 -52.5171,18.78557 -4.82756,-0.77122 -8.90465,-1.52956 -9.06027,-1.68522 -0.1557,-0.15559 3.64666,-2.32045 8.44962,-4.81065 20.45001,-10.60285 38.32441,-35.05601 51.59404,-70.58364 10.70138,-28.65161 16.97459,-55.98839 29.60452,-129.0082 4.39132,-25.38785 9.68708,-52.90283 11.76852,-61.14442 4.38732,-17.37171 10.68304,-29.9702 16.74634,-33.51136 3.85901,-2.25379 4.50117,-2.27418 10.35801,-0.32885 13.06082,4.3381 29.26878,18.38921 40.27294,34.91358 8.29554,12.45699 19.02861,35.56496 25.94233,55.8533 9.51939,27.9348 14.93282,49.23978 29.52154,116.18621 14.49212,66.50293 21.24642,81.16544 30.83462,66.9375 5.67127,-8.4156 12.32252,-30.20498 31.75097,-104.0162 17.07327,-64.86328 27.70338,-97.28966 41.16558,-125.57255 9.43714,-19.82657 14.05406,-27.10288 23.34421,-36.79055 9.1289,-9.51942 15.16451,-12.53397 24.9569,-12.46489 10.43918,0.0736 17.1459,3.64732 28.91887,15.40941 37.06262,37.02831 82.18445,150.10133 99.01441,248.12525 6.32223,36.82301 7.79057,54.13144 7.76306,91.50905 -0.02,26.42797 -0.56317,38.53062 -2.17087,48.31875 -2.84871,17.34323 -7.88672,34.28084 -13.56471,45.60383 -4.22644,8.42846 -15.79913,24.10323 -20.95389,28.38133 -1.82024,1.51063 -1.99402,1.39787 -1.33298,-0.86436 z"
       id="path835" />
  </g>
</svg>
